<svg width="75" height="72" viewBox="0 0 75 72" xmlns="http://www.w3.org/2000/svg">
<path d="M30.2087 42C38.5386 42 45.3128 35.721 45.3128 28C45.3128 20.279 38.5386 14 30.2087 14C21.8787 14 15.1045 20.279 15.1045 28C15.1045 35.721 21.8787 42 30.2087 42ZM30.2087 21C34.3736 21 37.7607 24.1395 37.7607 28C37.7607 31.8605 34.3736 35 30.2087 35C26.0437 35 22.6566 31.8605 22.6566 28C22.6566 24.1395 26.0437 21 30.2087 21Z"/>
<path d="M28.0557 70.3403C28.6837 70.7693 29.4362 71 30.208 71C30.9798 71 31.7323 70.7693 32.3603 70.3403C33.4884 69.577 60.0028 51.2624 59.8952 28.4002C59.8952 12.7411 46.5768 0 30.208 0C13.8392 0 0.520835 12.7411 0.520835 28.3825C0.413219 51.2624 26.9276 69.577 28.0557 70.3403ZM30.208 7.10006C42.4874 7.10006 52.4734 16.6532 52.4734 28.418C52.5513 44.173 36.19 58.3199 30.208 62.9598C24.2298 58.3163 7.8647 44.1659 7.94263 28.4002C7.94263 16.6532 17.9286 7.10006 30.208 7.10006Z"/>
</svg>
