<?xml version="1.0" encoding="utf-8"?><svg viewBox="0 0 75 72" xmlns="http://www.w3.org/2000/svg" xmlns:xlink="http://www.w3.org/1999/xlink"><style>:root>svg{display:none}:root>svg:target{display:block}</style><svg viewBox="0 0 48 48" id="bag" xmlns="http://www.w3.org/2000/svg"><g clip-path="url(#aclip0)"><path d="M42.589 12.525h-5.07v-5.07a3.38 3.38 0 00-3.38-3.379H13.861a3.38 3.38 0 00-3.38 3.38v5.07h-5.07a5.07 5.07 0 00-5.07 5.07v23.657a3.38 3.38 0 003.38 3.38H44.28a3.38 3.38 0 003.38-3.38V17.595a5.07 5.07 0 00-5.07-5.07zM13.86 7.455h20.278v5.07H13.861v-5.07zm30.418 33.798H3.721V26.044H17.24v8.45h13.518v-8.45h13.52v15.21zM20.62 26.044h6.76v5.07h-6.76v-5.07zm-16.898-3.38v-5.069a1.69 1.69 0 011.69-1.69h37.177a1.69 1.69 0 011.69 1.69v5.07H3.721z"/></g><defs><clipPath id="aclip0"><path fill="#fff" transform="translate(0 4)" d="M0 0h48v40.709H0z"/></clipPath></defs></svg><svg viewBox="0 0 48 48" id="book" xmlns="http://www.w3.org/2000/svg"><g clip-path="url(#bclip0)"><path d="M29.142 13.624h11.997v3.445H29.142v-3.445zM29.142 22.237h11.997v3.446H29.142v-3.446zM29.142 30.85h11.997v3.446H29.142V30.85z"/><path d="M44.567 5.011H3.432c-.909.001-1.78.364-2.423 1.01A3.458 3.458 0 00.004 8.457v31.007c0 .914.362 1.79 1.005 2.436a3.423 3.423 0 002.423 1.01h41.135a3.424 3.424 0 002.423-1.01 3.459 3.459 0 001.005-2.436V8.457c0-.914-.362-1.79-1.005-2.436a3.422 3.422 0 00-2.423-1.01zM3.432 8.457h18.854v31.007H3.432V8.457zm22.282 31.007V8.457h18.853l.004 31.007H25.714z"/></g><defs><clipPath id="bclip0"><path fill="#fff" transform="translate(0 5)" d="M0 0h48v37.92H0z"/></clipPath></defs></svg><svg viewBox="0 0 48 48" id="home" xmlns="http://www.w3.org/2000/svg"><g clip-path="url(#cclip0)"><path opacity=".15" d="M43.65 13.75H4.35c-.018 0-.03.012-.03.03v5.405c0 3.544 2.94 6.419 6.558 6.419a6.593 6.593 0 005.706-3.242.993.993 0 011.716 0 6.576 6.576 0 005.7 3.242c2.448 0 4.584-1.31 5.706-3.254a.97.97 0 01.834-.48h.036c.348 0 .66.183.834.48a6.586 6.586 0 005.712 3.254c3.618 0 6.558-2.875 6.558-6.42V13.78c0-.018-.012-.03-.03-.03z"/><path d="M46.2 9.489V1.897C46.2.847 45.342 0 44.28 0H3.72C2.658 0 1.8.848 1.8 1.897v7.592c-1.002.06-1.8.883-1.8 1.89v7.806a10.38 10.38 0 00.864 4.173c.258.604.576 1.173.936 1.712v20.448a1.91 1.91 0 001.92 1.897h40.56c1.062 0 1.92-.848 1.92-1.897V25.07c.366-.54.679-1.114.936-1.712.57-1.322.864-2.727.864-4.173V11.38a1.905 1.905 0 00-1.8-1.891zM6.12 4.267h35.76v5.216H6.12V4.267zm21.72 38.886h-7.68v-6.17h7.68v6.17zm14.064 0H31.68v-8.066a1.906 1.906 0 00-1.92-1.897H18.24c-1.062 0-1.92.848-1.92 1.897v8.066H6.12V28.8c.174.082.354.165.54.236a10.93 10.93 0 004.224.836 11.004 11.004 0 006.546-2.146.039.039 0 01.036 0c.716.53 1.496.97 2.322 1.31a10.93 10.93 0 004.224.836 11.004 11.004 0 006.546-2.146.039.039 0 01.036 0c.716.53 1.496.97 2.322 1.31a10.93 10.93 0 004.224.836c1.464 0 2.88-.278 4.224-.835.18-.078.36-.155.54-.238v14.355zm1.776-23.968c0 3.544-2.94 6.419-6.558 6.419a6.586 6.586 0 01-5.712-3.254.963.963 0 00-.834-.48h-.036a.97.97 0 00-.834.48 6.515 6.515 0 01-2.409 2.387 6.617 6.617 0 01-3.297.867 6.576 6.576 0 01-5.7-3.242.993.993 0 00-1.716 0 6.539 6.539 0 01-2.413 2.377 6.641 6.641 0 01-3.293.865c-3.618 0-6.558-2.875-6.558-6.419V13.78c0-.018.012-.03.03-.03h39.3c.018 0 .03.012.03.03v5.405z"/></g><defs><clipPath id="cclip0"><path fill="#fff" d="M0 0h48v47.415H0z"/></clipPath></defs></svg><svg fill="none" viewBox="0 0 32 26" id="line" xmlns="http://www.w3.org/2000/svg"><path d="M29.815 7.365l-1.998 3.006a13 13 0 01-.358 12.317H4.937A13 13 0 0122.015 4.57l3.007-2a16.25 16.25 0 00-22.88 21.743 3.25 3.25 0 002.795 1.625h22.506a3.25 3.25 0 002.827-1.625 16.25 16.25 0 00-.438-16.965l-.017.017zM13.907 18.48a3.25 3.25 0 004.598 0l9.198-13.797-13.796 9.198a3.25 3.25 0 000 4.599z" fill="#FFA62B"/></svg><svg viewBox="0 0 73 72" id="nav" xmlns="http://www.w3.org/2000/svg"><g clip-path="url(#eclip0)"><path d="M70.348 2.162a2.853 2.853 0 00-1.417-.804 2.78 2.78 0 00-1.611.114L3.862 25.471c-.548.216-1.019.6-1.351 1.1A3.084 3.084 0 002 28.277c0 .608.178 1.203.51 1.704.333.5.804.885 1.352 1.1l27.69 11.52L42.63 71.398a2.983 2.983 0 001.026 1.35 2.81 2.81 0 001.57.54 2.811 2.811 0 001.622-.561 2.99 2.99 0 001.032-1.419L70.954 5.312c.197-.53.244-1.109.137-1.667a3.043 3.043 0 00-.743-1.483zM45.225 61.889L37.177 40.89l13.817-14.37-4.067-4.229-13.932 14.49-20.076-8.49L63.483 9.3 45.225 61.89z"/></g><defs><clipPath id="eclip0"><path fill="#fff" transform="translate(.5)" d="M0 0h72v72H0z"/></clipPath></defs></svg><svg viewBox="0 0 73 72" id="phone" xmlns="http://www.w3.org/2000/svg"><g clip-path="url(#fclip0)"><path d="M56.929 38.995a3.785 3.785 0 00-5.357 0l-6.039 6.038c-2.8-.833-8.023-2.727-11.334-6.038-3.311-3.311-5.206-8.536-6.039-11.335l6.039-6.039a3.784 3.784 0 000-5.357L19.045 1.111a3.784 3.784 0 00-5.357 0L3.414 11.385a7.571 7.571 0 00-2.22 5.436c.087 5.395 1.516 24.132 16.283 38.9C32.244 70.487 50.98 71.911 56.38 72.002h.106c2 0 3.89-.788 5.323-2.22l10.274-10.274a3.785 3.785 0 000-5.357L56.929 38.995zm-.481 25.427c-4.728-.08-20.904-1.348-33.614-14.062C10.082 37.608 8.847 21.375 8.77 16.742l7.596-7.596 9.796 9.797-4.898 4.898a3.789 3.789 0 00-1.03 3.455c.09.436 2.314 10.767 8.603 17.056 6.289 6.288 16.62 8.512 17.055 8.603a3.754 3.754 0 003.456-1.027l4.902-4.898 9.796 9.797-7.6 7.595z"/></g><defs><clipPath id="fclip0"><path fill="#fff" transform="translate(.5)" d="M0 0h72v72H0z"/></clipPath></defs></svg><svg viewBox="0 0 75 72" id="point" xmlns="http://www.w3.org/2000/svg"><path d="M30.209 42c8.33 0 15.104-6.279 15.104-14s-6.774-14-15.104-14c-8.33 0-15.104 6.279-15.104 14s6.774 14 15.104 14zm0-21c4.165 0 7.552 3.14 7.552 7s-3.387 7-7.552 7c-4.165 0-7.552-3.14-7.552-7s3.387-7 7.552-7z"/><path d="M28.056 70.34a3.82 3.82 0 002.152.66 3.82 3.82 0 002.152-.66c1.128-.763 27.643-19.078 27.535-41.94C59.895 12.741 46.577 0 30.208 0S.521 12.741.521 28.383C.413 51.263 26.928 69.577 28.056 70.34zM30.208 7.1c12.28 0 22.265 9.553 22.265 21.318.078 15.755-16.283 29.902-22.265 34.542C24.23 58.316 7.865 44.166 7.943 28.4c0-11.747 9.986-21.3 22.265-21.3z"/></svg><svg viewBox="0 0 49 48" id="print" xmlns="http://www.w3.org/2000/svg"><g clip-path="url(#hclip0)"><path d="M16.064 33.995c-.811-.815-.389-.585-2.345-1.111-.887-.24-1.668-.699-2.373-1.249L7.11 42.064c-.41 1.01.356 2.106 1.44 2.065l4.918-.188 3.383 3.589a1.49 1.49 0 002.466-.465L24.176 35.1c-1.011.566-2.134.898-3.295.898-1.82 0-3.53-.711-4.817-2.003zm26.663 8.069l-4.234-10.429c-.706.551-1.486 1.01-2.374 1.249-1.966.529-1.535.298-2.344 1.11a6.756 6.756 0 01-4.818 2.004c-1.161 0-2.284-.332-3.296-.898l4.858 11.965a1.49 1.49 0 002.467.465l3.383-3.59 4.918.19c1.085.04 1.85-1.057 1.44-2.066zm-11.181-10.19c1.426-1.458 1.59-1.333 3.62-1.889a3.802 3.802 0 002.658-2.717c.698-2.662.517-2.34 2.422-4.289.949-.97 1.32-2.385.972-3.71-.697-2.661-.698-2.29 0-4.953a3.901 3.901 0 00-.973-3.71c-1.904-1.949-1.723-1.628-2.421-4.29A3.802 3.802 0 0035.166 3.6c-2.602-.713-2.288-.527-4.195-2.476A3.703 3.703 0 0027.34.13c-2.601.712-2.238.713-4.844 0a3.7 3.7 0 00-3.63.994c-1.905 1.948-1.59 1.763-4.194 2.476a3.802 3.802 0 00-2.657 2.717c-.697 2.662-.517 2.341-2.422 4.29a3.899 3.899 0 00-.973 3.71c.698 2.659.698 2.287 0 4.952a3.903 3.903 0 00.973 3.711c1.905 1.948 1.724 1.627 2.422 4.29a3.802 3.802 0 002.657 2.716c2.089.572 2.245.482 3.62 1.888a3.697 3.697 0 004.642.546 3.692 3.692 0 013.97 0 3.696 3.696 0 004.64-.546zm-15.432-15.38c0-4.971 3.942-9.001 8.805-9.001 4.863 0 8.805 4.03 8.805 9.002 0 4.971-3.942 9.001-8.805 9.001-4.863 0-8.805-4.03-8.805-9.001z"/></g><defs><clipPath id="hclip0"><path fill="#fff" transform="translate(7)" d="M0 0h35.84v48H0z"/></clipPath></defs></svg><svg viewBox="0 0 48 28" id="stats" xmlns="http://www.w3.org/2000/svg"><path d="M43.15 12.282a4.712 4.712 0 00-1.682.324l-5.74-4.785a6.214 6.214 0 00.241-1.633c0-3.378-2.666-6.093-5.984-6.093S24 2.81 24 6.188c0 .966.24 1.865.628 2.674l-6.964 8.38a4.855 4.855 0 00-.845-.085c-.428 0-.833.073-1.226.18L9.458 11.09c.108-.397.18-.81.18-1.245 0-2.701-2.136-4.875-4.788-4.875S.063 7.144.063 9.845c0 2.7 2.135 4.874 4.787 4.874.429 0 .833-.073 1.226-.18l6.135 6.247a4.728 4.728 0 00-.18 1.246c0 2.7 2.136 4.875 4.788 4.875s4.788-2.175 4.788-4.875c0-.578-.115-1.122-.295-1.636l6.973-8.39c.544.161 1.106.276 1.7.276a5.85 5.85 0 002.712-.685l5.743 4.785c-.045.256-.071.515-.077.775 0 2.7 2.135 4.875 4.788 4.875 2.652 0 4.787-2.174 4.787-4.875 0-2.7-2.135-4.875-4.787-4.875z"/></svg><svg viewBox="0 0 49 48" id="user" xmlns="http://www.w3.org/2000/svg"><g clip-path="url(#jclip0)"><g clip-path="url(#jclip1)"><path d="M24.84 22.802c4.305 0 7.652-3.495 7.652-7.785s-3.507-7.626-7.81-7.626c-4.305 0-7.653 3.495-7.653 7.626 0 4.29 3.507 7.785 7.812 7.785zm-.159-12.233c.16 0 .16 0 0 0 2.55 0 4.623 2.065 4.623 4.607 0 2.542-2.072 4.449-4.623 4.449a4.448 4.448 0 01-4.463-4.449c0-2.542 2.072-4.607 4.463-4.607zM48.434 21.849c-3.03-2.701-7.015-4.131-11.16-3.972H36c-.319 1.27-.797 2.383-1.434 3.336.956-.159 1.753-.159 2.71-.159 3.028-.159 6.057.795 8.449 2.542v11.44h3.188v-12.71l-.478-.477zM33.609 7.708c.797-1.906 3.029-2.86 5.101-2.065 1.913.794 2.87 3.019 2.072 5.084-.637 1.43-2.072 2.383-3.507 2.383-.319 0-.797 0-1.116-.159.16.795.16 1.59.16 2.225v.953c.319 0 .637.159.956.159 3.986 0 7.174-3.178 7.174-6.99 0-3.973-3.188-7.15-7.014-7.15-2.55 0-4.783 1.27-6.058 3.495.797.476 1.594 1.112 2.232 2.065zM15.435 21.372c-.638-.953-1.116-2.065-1.434-3.336h-1.276a16.438 16.438 0 00-11.159 3.813l-.478.477v12.71h3.188v-11.44c2.55-1.747 5.42-2.7 8.45-2.541.956 0 1.912.159 2.71.317zM12.725 16.13c.319 0 .637 0 .956-.16v-.953c0-.794 0-1.588.16-2.224-.32.159-.797.159-1.116.159-2.073 0-3.826-1.748-3.826-3.813 0-2.066 1.753-3.813 3.826-3.813 1.594 0 3.029.953 3.666 2.383.638-.795 1.594-1.589 2.391-2.224-2.072-3.337-6.376-4.45-9.724-2.384-3.348 2.066-4.464 6.356-2.391 9.692 1.275 2.066 3.507 3.337 6.058 3.337zM37.913 31.382l-.319-.477c-3.188-3.495-7.652-5.56-12.434-5.402-4.783-.159-9.406 1.907-12.594 5.402l-.319.477v12.075c0 1.43 1.116 2.7 2.71 2.7h20.405c1.435 0 2.71-1.27 2.71-2.7V31.382h-.16zM34.725 42.98h-19.29V32.494c2.551-2.542 6.058-3.813 9.725-3.813 3.507-.16 7.014 1.27 9.564 3.813V42.98z"/></g></g><defs><clipPath id="jclip0"><path fill="#fff" transform="translate(.5)" d="M0 0h48v48H0z"/></clipPath><clipPath id="jclip1"><path fill="#fff" transform="translate(1 2)" d="M0 0h48v44.211H0z"/></clipPath></defs></svg><svg fill="none" viewBox="0 0 30 30" id="users" xmlns="http://www.w3.org/2000/svg"><path fill-rule="evenodd" clip-rule="evenodd" d="M17.237 7.772a4.25 4.25 0 11-4.72-7.068 4.25 4.25 0 014.722 7.068h-.002zm-1.18-5.3a2.125 2.125 0 10-2.363 3.53 2.125 2.125 0 002.363-3.528v-.002zm5.547.064a3.175 3.175 0 014.026.399 3.215 3.215 0 01-1.034 5.228 3.17 3.17 0 01-3.475-.693 3.213 3.213 0 01.485-4.932l-.002-.002zm1.02 3.42a1.061 1.061 0 101.498-1.504 1.082 1.082 0 00-.746-.318 1.06 1.06 0 00-1.063 1.068c.001.283.112.555.31.757v-.002zM4.654 24.399h3.847v2.135H4.655a2.543 2.543 0 01-1.79-.759 2.571 2.571 0 01-.74-1.806v-3.846a2.118 2.118 0 01-1.508-.706 2.139 2.139 0 01-.616-1.561v-4.637a3.843 3.843 0 011.105-2.673A3.75 3.75 0 013.74 9.433h3.91a6.188 6.188 0 00-1.169 2.138H3.741a1.696 1.696 0 00-1.148.493c-.3.309-.468.723-.467 1.154v4.743H4.25v6.005a.43.43 0 00.106.321.51.51 0 00.298.106v.005zm15.513-13.851a3.75 3.75 0 00-2.656-1.112h-5.27a3.75 3.75 0 00-2.635 1.112A3.843 3.843 0 008.5 13.22v6.753c-.003.58.218 1.139.616 1.56a2.123 2.123 0 001.509.705v4.937a2.555 2.555 0 00.744 1.817 2.56 2.56 0 001.38.663H17a2.444 2.444 0 002.126-2.48v-4.939a2.118 2.118 0 001.509-.705 2.139 2.139 0 00.616-1.56v-6.753a3.825 3.825 0 00-1.084-2.673v.002zm-1.041 9.53H17v7.098a.43.43 0 01-.128.297.361.361 0 01-.297.128h-3.421a.446.446 0 01-.425-.425v-7.098h-2.104v-6.86c0-.43.168-.845.467-1.153.306-.304.716-.48 1.148-.493h5.27a1.653 1.653 0 011.498 1.02c.08.199.12.412.117.627v6.86zm5.971 6.454h-3.846v-2.136h3.825a.51.51 0 00.297-.106.424.424 0 00.128-.323v-6.005h2.125v-4.743c0-.431-.167-.845-.468-1.154a1.696 1.696 0 00-1.147-.493H23.27a6.185 6.185 0 00-1.17-2.138h3.91c.991.01 1.938.409 2.636 1.112a3.844 3.844 0 011.105 2.673v4.637c0 .58-.22 1.136-.614 1.557a2.236 2.236 0 01-1.511.708v3.846a2.57 2.57 0 01-.74 1.806 2.544 2.544 0 01-1.789.759zM6.376 1.996a3.175 3.175 0 00-2.945 1.98 3.224 3.224 0 00.692 3.492 3.181 3.181 0 005.44-2.266 3.212 3.212 0 00-1.967-2.961 3.179 3.179 0 00-1.22-.245zm0 4.275a1.06 1.06 0 01-1.063-1.069 1.071 1.071 0 011.063-1.068 1.082 1.082 0 011.062 1.068 1.071 1.071 0 01-1.062 1.07z" fill="#FFA62B"/></svg></svg>